<svg viewBox="0 0 37.0417 29.1668" xmlns="http://www.w3.org/2000/svg" xmlns:xlink="http://www.w3.org/1999/xlink" width="37.041748" height="29.166779" fill="none" customFrame="#000000">
	<defs>
		<g id="pixso_custom_effect_0">
			<effect x="0.000000" y="4.000000" visibility="visible" fill="rgb(0,0,0)" fill-opacity="0.25" effectType="dropShadow" stdDeviation="4" radius="0" />
		</g>
		<filter id="filter_0" width="37.041748" height="29.166779" x="0.000000" y="0.000000" filterUnits="userSpaceOnUse" customEffect="url(#pixso_custom_effect_0)" color-interpolation-filters="sRGB">
			<feFlood flood-opacity="0" result="BackgroundImageFix" />
			<feColorMatrix result="hardAlpha" in="SourceAlpha" type="matrix" values="0 0 0 0 0 0 0 0 0 0 0 0 0 0 0 0 0 0 127 0 " />
			<feOffset dx="0.000000" dy="4.000000" in="hardAlpha" />
			<feGaussianBlur stdDeviation="1.33333337" />
			<feComposite k2="-1" k3="1" in2="hardAlpha" operator="out" />
			<feColorMatrix type="matrix" values="0 0 0 0 0 0 0 0 0 0 0 0 0 0 0 0 0 0 0.25 0 " />
			<feBlend result="effect_dropShadow_1" in2="BackgroundImageFix" mode="normal" />
			<feBlend result="shape" in="SourceGraphic" in2="effect_dropShadow_1" mode="normal" />
		</filter>
	</defs>
	<g id="Group 23" filter="url(#filter_0)">
		<path id="Vector" d="M14.9608 20.8951L14.9527 20.8916L14.927 20.8776C14.7768 20.795 14.6279 20.7102 14.4802 20.6232C12.7043 19.568 11.0447 18.3284 9.52883 16.9249C6.84433 14.4201 4 10.7031 4 6.12508C4 2.70908 6.87467 8.27764e-05 10.3443 8.27764e-05C11.3089 -0.00464155 12.2621 0.208147 13.133 0.622622C14.004 1.0371 14.7703 1.6426 15.375 2.39408C15.9798 1.64244 16.7463 1.03685 17.6175 0.622368C18.4887 0.207886 19.4421 -0.00481723 20.4068 8.27764e-05C23.8753 8.27764e-05 26.75 2.70908 26.75 6.12508C26.75 10.7042 23.9057 14.4213 21.2212 16.9237C19.7054 18.3272 18.0457 19.5669 16.2698 20.6221C16.1221 20.7094 15.9732 20.7946 15.823 20.8776L15.7973 20.8916L15.7892 20.8962L15.7857 20.8974C15.6592 20.9644 15.5182 20.9995 15.375 20.9995C15.2318 20.9995 15.0908 20.9644 14.9643 20.8974L14.9608 20.8951Z" fill="rgb(255,255,255)" fill-rule="nonzero" />
		<g id="Group 22">
			<g id="Group 21">
				<path id="offline_bolt" d="M25.2683 18.9668L28.4583 12.7335L26.2583 12.7335L26.2583 8.70012L22.9583 14.9335L25.2683 14.9335L25.2683 18.9668ZM25.7083 21.1668C24.6939 21.1668 23.7406 20.9743 22.8483 20.5893C21.9561 20.2043 21.18 19.6818 20.52 19.0218C19.86 18.3618 19.3375 17.5857 18.9525 16.6935C18.5675 15.8012 18.375 14.8479 18.375 13.8335C18.375 12.819 18.5675 11.8657 18.9525 10.9735C19.3375 10.0812 19.86 9.30512 20.52 8.64512C21.18 7.98512 21.9561 7.46262 22.8483 7.07762C23.7406 6.69262 24.6939 6.50012 25.7083 6.50012C26.7228 6.50012 27.6761 6.69262 28.5683 7.07762C29.4606 7.46262 30.2367 7.98512 30.8967 8.64512C31.5567 9.30512 32.0792 10.0812 32.4642 10.9735C32.8492 11.8657 33.0417 12.819 33.0417 13.8335C33.0417 14.8479 32.8492 15.8012 32.4642 16.6935C32.0792 17.5857 31.5567 18.3618 30.8967 19.0218C30.2367 19.6818 29.4606 20.2043 28.5683 20.5893C27.6761 20.9743 26.7228 21.1668 25.7083 21.1668Z" fill="rgb(137,65,137)" fill-rule="nonzero" />
			</g>
			<g id="Group 20">
				<path id="offline_bolt" d="M25.6417 18.5001L28.5417 12.8334L26.5417 12.8334L26.5417 9.16675L23.5417 14.8334L25.6417 14.8334L25.6417 18.5001ZM26.0417 20.5001C25.1194 20.5001 24.2528 20.3251 23.4417 19.9751C22.6306 19.6251 21.925 19.1501 21.325 18.5501C20.725 17.9501 20.25 17.2445 19.9 16.4334C19.55 15.6223 19.375 14.7556 19.375 13.8334C19.375 12.9112 19.55 12.0445 19.9 11.2334C20.25 10.4223 20.725 9.71675 21.325 9.11675C21.925 8.51675 22.6306 8.04175 23.4417 7.69175C24.2528 7.34175 25.1194 7.16675 26.0417 7.16675C26.9639 7.16675 27.8306 7.34175 28.6417 7.69175C29.4528 8.04175 30.1583 8.51675 30.7583 9.11675C31.3583 9.71675 31.8333 10.4223 32.1833 11.2334C32.5333 12.0445 32.7083 12.9112 32.7083 13.8334C32.7083 14.7556 32.5333 15.6223 32.1833 16.4334C31.8333 17.2445 31.3583 17.9501 30.7583 18.5501C30.1583 19.1501 29.4528 19.6251 28.6417 19.9751C27.8306 20.3251 26.9639 20.5001 26.0417 20.5001Z" fill="rgb(255,255,255)" fill-rule="nonzero" />
			</g>
		</g>
	</g>
</svg>
